<mxfile host="app.diagrams.net" agent="Mozilla/5.0 (Macintosh; Intel Mac OS X 10_15_7) AppleWebKit/605.1.15 (KHTML, like Gecko) Version/18.3 Safari/605.1.15" version="26.0.14">
  <diagram name="Page-1" id="pSzyg3bprWRbFi4SqLrY">
    <mxGraphModel dx="1229" dy="718" grid="1" gridSize="10" guides="1" tooltips="1" connect="1" arrows="1" fold="1" page="1" pageScale="1" pageWidth="827" pageHeight="1169" math="0" shadow="0">
      <root>
        <mxCell id="0" />
        <mxCell id="1" parent="0" />
        <mxCell id="_N5WGgoZpc1qsy4WxHi_-1" value="Авторизированный&lt;div&gt;пользователь&lt;/div&gt;" style="shape=umlActor;verticalLabelPosition=bottom;verticalAlign=top;html=1;outlineConnect=0;" vertex="1" parent="1">
          <mxGeometry x="110" y="270" width="30" height="60" as="geometry" />
        </mxCell>
        <mxCell id="_N5WGgoZpc1qsy4WxHi_-4" value="Чтение статьи/рецепта" style="ellipse;whiteSpace=wrap;html=1;" vertex="1" parent="1">
          <mxGeometry x="250" y="200" width="120" height="80" as="geometry" />
        </mxCell>
        <mxCell id="_N5WGgoZpc1qsy4WxHi_-7" style="edgeStyle=orthogonalEdgeStyle;rounded=0;orthogonalLoop=1;jettySize=auto;html=1;entryX=1;entryY=0.5;entryDx=0;entryDy=0;" edge="1" parent="1" source="_N5WGgoZpc1qsy4WxHi_-5" target="_N5WGgoZpc1qsy4WxHi_-4">
          <mxGeometry relative="1" as="geometry" />
        </mxCell>
        <mxCell id="_N5WGgoZpc1qsy4WxHi_-5" value="Поиск и фильтрация" style="ellipse;whiteSpace=wrap;html=1;" vertex="1" parent="1">
          <mxGeometry x="460" y="200" width="120" height="80" as="geometry" />
        </mxCell>
        <mxCell id="_N5WGgoZpc1qsy4WxHi_-8" style="edgeStyle=orthogonalEdgeStyle;rounded=1;orthogonalLoop=1;jettySize=auto;html=1;entryX=0.5;entryY=0;entryDx=0;entryDy=0;entryPerimeter=0;endArrow=none;startFill=0;curved=0;" edge="1" parent="1" source="_N5WGgoZpc1qsy4WxHi_-4" target="_N5WGgoZpc1qsy4WxHi_-1">
          <mxGeometry relative="1" as="geometry" />
        </mxCell>
        <mxCell id="_N5WGgoZpc1qsy4WxHi_-10" style="edgeStyle=orthogonalEdgeStyle;rounded=0;orthogonalLoop=1;jettySize=auto;html=1;entryX=0.5;entryY=0;entryDx=0;entryDy=0;" edge="1" parent="1" source="_N5WGgoZpc1qsy4WxHi_-9" target="_N5WGgoZpc1qsy4WxHi_-4">
          <mxGeometry relative="1" as="geometry" />
        </mxCell>
        <mxCell id="_N5WGgoZpc1qsy4WxHi_-11" value="Дополнение" style="edgeLabel;html=1;align=center;verticalAlign=middle;resizable=0;points=[];" vertex="1" connectable="0" parent="_N5WGgoZpc1qsy4WxHi_-10">
          <mxGeometry x="-0.3714" relative="1" as="geometry">
            <mxPoint x="40" y="8" as="offset" />
          </mxGeometry>
        </mxCell>
        <mxCell id="_N5WGgoZpc1qsy4WxHi_-9" value="Оставить комментарий" style="ellipse;whiteSpace=wrap;html=1;" vertex="1" parent="1">
          <mxGeometry x="250" y="50" width="120" height="80" as="geometry" />
        </mxCell>
        <mxCell id="_N5WGgoZpc1qsy4WxHi_-12" value="Дополнение" style="edgeLabel;html=1;align=center;verticalAlign=middle;resizable=0;points=[];" vertex="1" connectable="0" parent="1">
          <mxGeometry x="414" y="220" as="geometry" />
        </mxCell>
        <mxCell id="_N5WGgoZpc1qsy4WxHi_-14" style="edgeStyle=orthogonalEdgeStyle;rounded=0;orthogonalLoop=1;jettySize=auto;html=1;endArrow=none;startFill=0;" edge="1" parent="1" source="_N5WGgoZpc1qsy4WxHi_-13">
          <mxGeometry relative="1" as="geometry">
            <mxPoint x="180" y="340" as="targetPoint" />
          </mxGeometry>
        </mxCell>
        <mxCell id="_N5WGgoZpc1qsy4WxHi_-13" value="Создание статьи/рецепта" style="ellipse;whiteSpace=wrap;html=1;" vertex="1" parent="1">
          <mxGeometry x="250" y="300" width="120" height="80" as="geometry" />
        </mxCell>
        <mxCell id="_N5WGgoZpc1qsy4WxHi_-16" style="edgeStyle=orthogonalEdgeStyle;rounded=0;orthogonalLoop=1;jettySize=auto;html=1;endArrow=none;startFill=0;" edge="1" parent="1" source="_N5WGgoZpc1qsy4WxHi_-15">
          <mxGeometry relative="1" as="geometry">
            <mxPoint x="125" y="370" as="targetPoint" />
          </mxGeometry>
        </mxCell>
        <mxCell id="_N5WGgoZpc1qsy4WxHi_-15" value="Выход из аккаунт" style="ellipse;whiteSpace=wrap;html=1;" vertex="1" parent="1">
          <mxGeometry x="65" y="430" width="120" height="80" as="geometry" />
        </mxCell>
        <mxCell id="_N5WGgoZpc1qsy4WxHi_-18" style="edgeStyle=orthogonalEdgeStyle;rounded=0;orthogonalLoop=1;jettySize=auto;html=1;entryX=0;entryY=0;entryDx=0;entryDy=0;" edge="1" parent="1" source="_N5WGgoZpc1qsy4WxHi_-17" target="_N5WGgoZpc1qsy4WxHi_-4">
          <mxGeometry relative="1" as="geometry" />
        </mxCell>
        <mxCell id="_N5WGgoZpc1qsy4WxHi_-17" value="Оценка статьи/рецета" style="ellipse;whiteSpace=wrap;html=1;" vertex="1" parent="1">
          <mxGeometry x="70" y="100" width="120" height="80" as="geometry" />
        </mxCell>
        <mxCell id="_N5WGgoZpc1qsy4WxHi_-19" value="Дополнение" style="edgeLabel;html=1;align=center;verticalAlign=middle;resizable=0;points=[];" vertex="1" connectable="0" parent="1">
          <mxGeometry x="230" y="160" as="geometry" />
        </mxCell>
      </root>
    </mxGraphModel>
  </diagram>
</mxfile>
